<?xml version="1.0" encoding="UTF-8" standalone="no"?>
<svg width="565px" height="58px" viewBox="0 0 565 58" version="1.1" xmlns="http://www.w3.org/2000/svg" xmlns:xlink="http://www.w3.org/1999/xlink">
    <g id="landing" stroke="none" stroke-width="1" fill="none" fill-rule="evenodd">
        <g id="Desktop-HD" transform="translate(-439.000000, -399.000000)" fill="#FFFFFF">
            <path d="M448.328418,444 L448.328418,401.46 L439.928418,401.46 L439.928418,444 L448.328418,444 Z M463.19333,427.02 C463.19333,423.6 465.23333,420.9 468.71333,420.9 C472.55333,420.9 474.17333,423.48 474.17333,426.78 L474.17333,444 L482.15333,444 L482.15333,425.4 C482.15333,418.92 478.79333,413.7 471.47333,413.7 C468.29333,413.7 464.75333,415.08 462.95333,418.14 L462.95333,414.48 L455.21333,414.48 L455.21333,444 L463.19333,444 L463.19333,427.02 Z M497.858243,405.66 L490.658243,405.66 L490.658243,409.8 C490.658243,412.44 489.218243,414.48 486.098243,414.48 L484.598243,414.48 L484.598243,421.56 L489.938243,421.56 L489.938243,435.3 C489.938243,441 493.538243,444.42 499.298243,444.42 C501.638243,444.42 503.078243,444 503.798243,443.7 L503.798243,437.1 C503.378243,437.22 502.298243,437.34 501.338243,437.34 C499.058243,437.34 497.858243,436.5 497.858243,433.92 L497.858243,421.56 L503.798243,421.56 L503.798243,414.48 L497.858243,414.48 L497.858243,405.66 Z M525.923155,414.36 C525.323155,414.3 524.723155,414.24 524.063155,414.24 C521.543155,414.24 517.463155,414.96 515.663155,418.86 L515.663155,414.48 L507.923155,414.48 L507.923155,444 L515.903155,444 L515.903155,430.5 C515.903155,424.14 519.443155,422.16 523.523155,422.16 C524.243155,422.16 525.023155,422.22 525.923155,422.4 L525.923155,414.36 Z M542.288068,437.64 C538.388068,437.64 534.788068,434.76 534.788068,429.24 C534.788068,423.66 538.388068,420.84 542.288068,420.84 C546.188068,420.84 549.788068,423.66 549.788068,429.24 C549.788068,434.82 546.188068,437.64 542.288068,437.64 L542.288068,437.64 Z M542.288068,413.58 C533.468068,413.58 526.808068,420.12 526.808068,429.24 C526.808068,438.3 533.468068,444.9 542.288068,444.9 C551.108068,444.9 557.768068,438.3 557.768068,429.24 C557.768068,420.12 551.108068,413.58 542.288068,413.58 L542.288068,413.58 Z M589.972981,400.56 L582.112981,400.56 L582.112981,417.42 C581.272981,415.86 578.872981,413.76 573.772981,413.76 C565.432981,413.76 559.612981,420.54 559.612981,429.18 C559.612981,438.12 565.612981,444.72 574.012981,444.72 C577.972981,444.72 580.972981,442.92 582.292981,440.58 C582.292981,441.96 582.472981,443.4 582.592981,444 L590.212981,444 C590.092981,442.8 589.972981,440.64 589.972981,438.66 L589.972981,400.56 Z M567.652981,429.18 C567.652981,423.9 570.892981,420.9 574.972981,420.9 C579.052981,420.9 582.232981,423.84 582.232981,429.12 C582.232981,434.46 579.052981,437.58 574.972981,437.58 C570.772981,437.58 567.652981,434.46 567.652981,429.18 L567.652981,429.18 Z M615.577893,444 L623.197893,444 C623.077893,442.98 622.897893,440.94 622.897893,438.66 L622.897893,414.48 L614.917893,414.48 L614.917893,431.64 C614.917893,435.06 612.877893,437.46 609.337893,437.46 C605.617893,437.46 603.937893,434.82 603.937893,431.52 L603.937893,414.48 L595.957893,414.48 L595.957893,433.14 C595.957893,439.56 600.037893,444.78 607.177893,444.78 C610.297893,444.78 613.717893,443.58 615.337893,440.82 C615.337893,442.02 615.457893,443.4 615.577893,444 L615.577893,444 Z M642.322806,420.96 C646.282806,420.96 648.142806,423.48 648.862806,425.94 L656.002806,423.54 C654.742806,418.56 650.182806,413.58 642.142806,413.58 C633.562806,413.58 626.842806,420.12 626.842806,429.24 C626.842806,438.3 633.682806,444.9 642.382806,444.9 C650.242806,444.9 654.862806,439.86 656.182806,434.94 L649.162806,432.6 C648.502806,434.88 646.462806,437.58 642.382806,437.58 C638.302806,437.58 634.822806,434.58 634.822806,429.24 C634.822806,423.9 638.242806,420.96 642.322806,420.96 L642.322806,420.96 Z M667.807718,444 L667.807718,414.48 L659.827718,414.48 L659.827718,444 L667.807718,444 Z M658.867718,404.82 C658.867718,407.46 661.087718,409.68 663.787718,409.68 C666.547718,409.68 668.707718,407.46 668.707718,404.82 C668.707718,402.06 666.547718,399.84 663.787718,399.84 C661.087718,399.84 658.867718,402.06 658.867718,404.82 L658.867718,404.82 Z M682.072631,427.02 C682.072631,423.6 684.112631,420.9 687.592631,420.9 C691.432631,420.9 693.052631,423.48 693.052631,426.78 L693.052631,444 L701.032631,444 L701.032631,425.4 C701.032631,418.92 697.672631,413.7 690.352631,413.7 C687.172631,413.7 683.632631,415.08 681.832631,418.14 L681.832631,414.48 L674.092631,414.48 L674.092631,444 L682.072631,444 L682.072631,427.02 Z M704.797544,445.62 C705.637544,451.26 711.037544,456.3 719.137544,456.3 C730.237544,456.3 734.617544,448.92 734.617544,440.82 L734.617544,414.48 L726.937544,414.48 L726.937544,417.96 C725.917544,415.98 723.217544,413.94 718.537544,413.94 C710.437544,413.94 704.797544,420.54 704.797544,428.34 C704.797544,436.62 710.677544,442.68 718.537544,442.68 C722.797544,442.68 725.557544,440.82 726.757544,438.9 L726.757544,441.06 C726.757544,446.76 723.937544,449.28 718.897544,449.28 C715.117544,449.28 712.537544,446.94 711.997544,443.7 L704.797544,445.62 Z M719.917544,435.84 C715.777544,435.84 712.837544,432.96 712.837544,428.34 C712.837544,423.78 715.957544,420.9 719.917544,420.9 C723.757544,420.9 726.877544,423.78 726.877544,428.34 C726.877544,432.9 723.997544,435.84 719.917544,435.84 L719.917544,435.84 Z M739.522456,439.2 C739.522456,442.08 741.562456,444.18 744.502456,444.18 C745.162456,444.18 745.822456,444 746.062456,443.82 C745.942456,447.12 743.062456,449.7 740.362456,450.3 L740.362456,454.14 C744.802456,453.6 750.922456,449.88 750.922456,441.06 C750.922456,437.16 748.702456,434.16 744.982456,434.16 C741.862456,434.16 739.522456,436.32 739.522456,439.2 L739.522456,439.2 Z M789.052282,444.9 C800.992282,444.9 807.112282,436.98 808.732282,430.44 L800.992282,428.1 C799.852282,432.06 796.312282,436.8 789.052282,436.8 C782.212282,436.8 775.852282,431.82 775.852282,422.76 C775.852282,413.1 782.572282,408.54 788.932282,408.54 C796.312282,408.54 799.612282,413.04 800.632282,417.12 L808.432282,414.66 C806.752282,407.76 800.692282,400.56 788.932282,400.56 C777.532282,400.56 767.272282,409.2 767.272282,422.76 C767.272282,436.32 777.172282,444.9 789.052282,444.9 L789.052282,444.9 Z M810.157194,435.96 C810.157194,440.58 813.997194,444.84 820.297194,444.84 C824.677194,444.84 827.497194,442.8 828.997194,440.46 C828.997194,441.6 829.117194,443.22 829.297194,444 L836.617194,444 C836.437194,442.98 836.257194,440.88 836.257194,439.32 L836.257194,424.8 C836.257194,418.86 832.777194,413.58 823.417194,413.58 C815.497194,413.58 811.237194,418.68 810.757194,423.3 L817.837194,424.8 C818.077194,422.22 819.997194,420 823.477194,420 C826.837194,420 828.457194,421.74 828.457194,423.84 C828.457194,424.86 827.917194,425.7 826.237194,425.94 L818.977194,427.02 C814.057194,427.74 810.157194,430.68 810.157194,435.96 L810.157194,435.96 Z M821.977194,438.9 C819.397194,438.9 818.137194,437.22 818.137194,435.48 C818.137194,433.2 819.757194,432.06 821.797194,431.76 L828.457194,430.74 L828.457194,432.06 C828.457194,437.28 825.337194,438.9 821.977194,438.9 L821.977194,438.9 Z M839.542107,435.78 C839.902107,439.14 842.962107,444.9 851.842107,444.9 C859.582107,444.9 863.302107,439.98 863.302107,435.18 C863.302107,430.86 860.362107,427.32 854.542107,426.12 L850.342107,425.22 C848.722107,424.92 847.642107,424.02 847.642107,422.58 C847.642107,420.9 849.322107,419.64 851.422107,419.64 C854.782107,419.64 856.042107,421.86 856.282107,423.6 L862.942107,422.1 C862.582107,418.92 859.762107,413.58 851.362107,413.58 C845.002107,413.58 840.322107,417.96 840.322107,423.24 C840.322107,427.38 842.902107,430.8 848.602107,432.06 L852.502107,432.96 C854.782107,433.44 855.682107,434.52 855.682107,435.84 C855.682107,437.4 854.422107,438.78 851.782107,438.78 C848.302107,438.78 846.562107,436.62 846.382107,434.28 L839.542107,435.78 Z M880.627019,420.96 C884.587019,420.96 886.447019,423.48 887.167019,425.94 L894.307019,423.54 C893.047019,418.56 888.487019,413.58 880.447019,413.58 C871.867019,413.58 865.147019,420.12 865.147019,429.24 C865.147019,438.3 871.987019,444.9 880.687019,444.9 C888.547019,444.9 893.167019,439.86 894.487019,434.94 L887.467019,432.6 C886.807019,434.88 884.767019,437.58 880.687019,437.58 C876.607019,437.58 873.127019,434.58 873.127019,429.24 C873.127019,423.9 876.547019,420.96 880.627019,420.96 L880.627019,420.96 Z M896.211932,435.96 C896.211932,440.58 900.051932,444.84 906.351932,444.84 C910.731932,444.84 913.551932,442.8 915.051932,440.46 C915.051932,441.6 915.171932,443.22 915.351932,444 L922.671932,444 C922.491932,442.98 922.311932,440.88 922.311932,439.32 L922.311932,424.8 C922.311932,418.86 918.831932,413.58 909.471932,413.58 C901.551932,413.58 897.291932,418.68 896.811932,423.3 L903.891932,424.8 C904.131932,422.22 906.051932,420 909.531932,420 C912.891932,420 914.511932,421.74 914.511932,423.84 C914.511932,424.86 913.971932,425.7 912.291932,425.94 L905.031932,427.02 C900.111932,427.74 896.211932,430.68 896.211932,435.96 L896.211932,435.96 Z M908.031932,438.9 C905.451932,438.9 904.191932,437.22 904.191932,435.48 C904.191932,433.2 905.811932,432.06 907.851932,431.76 L914.511932,430.74 L914.511932,432.06 C914.511932,437.28 911.391932,438.9 908.031932,438.9 L908.031932,438.9 Z M956.136845,400.56 L948.276845,400.56 L948.276845,417.42 C947.436845,415.86 945.036845,413.76 939.936845,413.76 C931.596845,413.76 925.776845,420.54 925.776845,429.18 C925.776845,438.12 931.776845,444.72 940.176845,444.72 C944.136845,444.72 947.136845,442.92 948.456845,440.58 C948.456845,441.96 948.636845,443.4 948.756845,444 L956.376845,444 C956.256845,442.8 956.136845,440.64 956.136845,438.66 L956.136845,400.56 Z M933.816845,429.18 C933.816845,423.9 937.056845,420.9 941.136845,420.9 C945.216845,420.9 948.396845,423.84 948.396845,429.12 C948.396845,434.46 945.216845,437.58 941.136845,437.58 C936.936845,437.58 933.816845,434.46 933.816845,429.18 L933.816845,429.18 Z M968.361757,425.88 C968.541757,423.18 970.821757,420.06 974.961757,420.06 C979.521757,420.06 981.441757,422.94 981.561757,425.88 L968.361757,425.88 Z M982.341757,433.56 C981.381757,436.2 979.341757,438.06 975.621757,438.06 C971.661757,438.06 968.361757,435.24 968.181757,431.34 L989.301757,431.34 C989.301757,431.22 989.421757,430.02 989.421757,428.88 C989.421757,419.4 983.961757,413.58 974.841757,413.58 C967.281757,413.58 960.321757,419.7 960.321757,429.12 C960.321757,439.08 967.461757,444.9 975.561757,444.9 C982.821757,444.9 987.501757,440.64 989.001757,435.54 L982.341757,433.56 Z M992.34667,438.96 C992.34667,441.96 994.80667,444.42 997.80667,444.42 C1000.86667,444.42 1003.32667,441.96 1003.32667,438.96 C1003.32667,435.96 1000.86667,433.5 997.80667,433.5 C994.80667,433.5 992.34667,435.96 992.34667,438.96 L992.34667,438.96 Z" id="Introducing,-Cascade-Copy"></path>
        </g>
    </g>
</svg>
