<svg width="920" height="229" viewBox="0 0 920 229" xmlns="http://www.w3.org/2000/svg" xmlns:xlink="http://www.w3.org/1999/xlink"><title>Group 2</title><defs><path d="M114.5 229c63.237 0 114.5-51.263 114.5-114.5S177.737 0 114.5 0 0 51.263 0 114.5 51.263 229 114.5 229z" id="a"/></defs><g fill="none" fill-rule="evenodd"><path d="M348.938 176.565c34.029 0 51.47-22.572 56.088-41.211l-22.06-6.669c-3.249 11.286-13.338 24.795-34.029 24.795-19.494 0-37.62-14.193-37.62-40.014 0-27.531 19.152-40.527 37.279-40.527 21.032 0 30.438 12.825 33.344 24.453l22.23-7.011c-4.788-19.665-22.059-40.185-55.575-40.185-32.49 0-61.73 24.624-61.73 63.27s28.214 63.099 62.072 63.099zm60.149-25.479c0 13.167 10.944 25.308 28.899 25.308 12.483 0 20.52-5.814 24.795-12.483 0 3.249.341 7.866.854 10.089h20.863c-.513-2.907-1.026-8.892-1.026-13.338V119.28c0-16.929-9.918-31.977-36.594-31.977-22.572 0-34.714 14.535-36.082 27.702l20.178 4.275c.685-7.353 6.156-13.68 16.075-13.68 9.576 0 14.192 4.959 14.192 10.944 0 2.907-1.538 5.301-6.327 5.985l-20.69 3.078c-14.022 2.052-25.137 10.431-25.137 25.479zm33.687 8.379c-7.353 0-10.945-4.788-10.945-9.747 0-6.498 4.618-9.747 10.431-10.602l18.981-2.907v3.762c0 14.877-8.892 19.494-18.467 19.494zm50.06-8.892c1.026 9.576 9.746 25.992 35.055 25.992 22.058 0 32.66-14.022 32.66-27.702 0-12.312-8.379-22.401-24.966-25.821l-11.97-2.565c-4.617-.855-7.695-3.42-7.695-7.524 0-4.788 4.788-8.379 10.774-8.379 9.576 0 13.167 6.327 13.85 11.286l18.981-4.275c-1.026-9.063-9.063-24.282-33.003-24.282-18.125 0-31.463 12.483-31.463 27.531 0 11.799 7.352 21.546 23.597 25.137l11.115 2.565c6.499 1.368 9.063 4.446 9.063 8.208 0 4.446-3.59 8.379-11.115 8.379-9.918 0-14.876-6.156-15.39-12.825l-19.493 4.275zm117.092-42.237c11.285 0 16.587 7.182 18.638 14.193l20.35-6.84c-3.591-14.193-16.587-28.386-39.501-28.386-24.453 0-43.606 18.639-43.606 44.631 0 25.821 19.495 44.631 44.29 44.631 22.4 0 35.567-14.364 39.33-28.386l-20.008-6.669c-1.88 6.498-7.694 14.193-19.322 14.193-11.629 0-21.546-8.55-21.546-23.769 0-15.219 9.746-23.598 21.375-23.598zm44.416 42.75c0 13.167 10.945 25.308 28.9 25.308 12.483 0 20.52-5.814 24.795-12.483 0 3.249.341 7.866.854 10.089h20.863c-.514-2.907-1.027-8.892-1.027-13.338V119.28c0-16.929-9.918-31.977-36.593-31.977-22.572 0-34.714 14.535-36.082 27.702l20.178 4.275c.684-7.353 6.156-13.68 16.074-13.68 9.577 0 14.193 4.959 14.193 10.944 0 2.907-1.538 5.301-6.327 5.985l-20.69 3.078c-14.023 2.052-25.138 10.431-25.138 25.479zm33.688 8.379c-7.353 0-10.944-4.788-10.944-9.747 0-6.498 4.616-9.747 10.43-10.602l18.981-2.907v3.762c0 14.877-8.891 19.494-18.467 19.494zM825.129 50.196h-22.402v48.051c-2.394-4.446-9.233-10.431-23.769-10.431-23.769 0-40.356 19.323-40.356 43.947 0 25.479 17.1 44.289 41.04 44.289 11.286 0 19.837-5.13 23.598-11.799 0 3.933.514 8.037.856 9.747h21.716c-.341-3.42-.683-9.576-.683-15.219V50.196zm-63.613 81.567c0-15.048 9.235-23.598 20.863-23.598 11.627 0 20.69 8.379 20.69 23.427 0 15.219-9.063 24.111-20.69 24.111-11.97 0-20.863-8.892-20.863-23.94zm98.454-9.405c.512-7.695 7.01-16.587 18.81-16.587 12.995 0 18.467 8.208 18.81 16.587h-37.62zm39.842 21.888c-2.736 7.524-8.55 12.825-19.152 12.825-11.285 0-20.69-8.037-21.203-19.152h60.192c0-.342.341-3.762.341-7.011 0-27.018-15.56-43.605-41.553-43.605-21.546 0-41.381 17.442-41.381 44.289 0 28.386 20.348 44.973 43.433 44.973 20.692 0 34.03-12.141 38.304-26.676l-18.98-5.643z" fill="#FFF"/><g><mask id="b" fill="#fff"><use xlink:href="#a"/></mask><use fill="#D8D8D8" xlink:href="#a"/><path fill="#41ACFF" mask="url(#b)" d="M183.2-61.067H229v350.043h-45.8z"/><path fill="#6BBEFF" mask="url(#b)" d="M137.4-61.067h45.8v350.043h-45.8z"/><path fill="#9CD4FF" mask="url(#b)" d="M91.6-61.067h45.8v350.043H91.6z"/><path fill="#CEEAFF" mask="url(#b)" d="M45.8-61.067h45.8v350.043H45.8z"/><path fill="#E9F5FF" mask="url(#b)" d="M0-61.067h45.8v350.043H0z"/></g></g></svg>